<mxfile host="app.diagrams.net" modified="2023-04-21T12:37:07.174Z" agent="Mozilla/5.0 (Windows NT 10.0; Win64; x64) AppleWebKit/537.36 (KHTML, like Gecko) Chrome/112.0.0.0 Safari/537.36" etag="m_EcPf7duSzomO9bTSTv" version="21.2.1" type="device">
  <diagram id="C5RBs43oDa-KdzZeNtuy" name="Page-1">
    <mxGraphModel dx="1877" dy="549" grid="1" gridSize="10" guides="1" tooltips="1" connect="1" arrows="1" fold="1" page="1" pageScale="1" pageWidth="827" pageHeight="1169" math="0" shadow="0">
      <root>
        <mxCell id="WIyWlLk6GJQsqaUBKTNV-0" />
        <mxCell id="WIyWlLk6GJQsqaUBKTNV-1" parent="WIyWlLk6GJQsqaUBKTNV-0" />
        <mxCell id="o9mMp5TyEiLtzrGNbMBP-0" value="Покупатель открывает приложение&amp;nbsp;" style="rounded=0;whiteSpace=wrap;html=1;" parent="WIyWlLk6GJQsqaUBKTNV-1" vertex="1">
          <mxGeometry x="340" y="50" width="160" height="60" as="geometry" />
        </mxCell>
        <mxCell id="S09NeGv9XtgrJAgJKScN-2" value="Покупатель" style="text;html=1;strokeColor=none;fillColor=none;align=center;verticalAlign=middle;whiteSpace=wrap;rounded=0;" vertex="1" parent="WIyWlLk6GJQsqaUBKTNV-1">
          <mxGeometry x="390" width="60" height="30" as="geometry" />
        </mxCell>
        <mxCell id="S09NeGv9XtgrJAgJKScN-17" style="edgeStyle=orthogonalEdgeStyle;rounded=0;orthogonalLoop=1;jettySize=auto;html=1;exitX=0.5;exitY=1;exitDx=0;exitDy=0;entryX=0.5;entryY=0;entryDx=0;entryDy=0;" edge="1" parent="WIyWlLk6GJQsqaUBKTNV-1" source="S09NeGv9XtgrJAgJKScN-7" target="S09NeGv9XtgrJAgJKScN-10">
          <mxGeometry relative="1" as="geometry" />
        </mxCell>
        <mxCell id="S09NeGv9XtgrJAgJKScN-7" value="Выполняет регистрацию вводя свои данные&lt;br&gt;(ФИО, ном.тел, адрес)" style="rounded=0;whiteSpace=wrap;html=1;" vertex="1" parent="WIyWlLk6GJQsqaUBKTNV-1">
          <mxGeometry x="340" y="150" width="160" height="60" as="geometry" />
        </mxCell>
        <mxCell id="S09NeGv9XtgrJAgJKScN-8" value="" style="endArrow=classic;html=1;rounded=0;exitX=0.5;exitY=1;exitDx=0;exitDy=0;entryX=0.5;entryY=0;entryDx=0;entryDy=0;" edge="1" parent="WIyWlLk6GJQsqaUBKTNV-1" source="o9mMp5TyEiLtzrGNbMBP-0" target="S09NeGv9XtgrJAgJKScN-7">
          <mxGeometry width="50" height="50" relative="1" as="geometry">
            <mxPoint x="770" y="250" as="sourcePoint" />
            <mxPoint x="820" y="200" as="targetPoint" />
          </mxGeometry>
        </mxCell>
        <mxCell id="S09NeGv9XtgrJAgJKScN-21" style="edgeStyle=orthogonalEdgeStyle;rounded=0;orthogonalLoop=1;jettySize=auto;html=1;exitX=1;exitY=0.5;exitDx=0;exitDy=0;entryX=1;entryY=0.5;entryDx=0;entryDy=0;" edge="1" parent="WIyWlLk6GJQsqaUBKTNV-1" source="S09NeGv9XtgrJAgJKScN-10" target="S09NeGv9XtgrJAgJKScN-7">
          <mxGeometry relative="1" as="geometry">
            <Array as="points">
              <mxPoint x="540" y="245" />
              <mxPoint x="540" y="180" />
            </Array>
          </mxGeometry>
        </mxCell>
        <mxCell id="S09NeGv9XtgrJAgJKScN-26" style="edgeStyle=orthogonalEdgeStyle;rounded=0;orthogonalLoop=1;jettySize=auto;html=1;" edge="1" parent="WIyWlLk6GJQsqaUBKTNV-1" source="S09NeGv9XtgrJAgJKScN-10" target="S09NeGv9XtgrJAgJKScN-25">
          <mxGeometry relative="1" as="geometry" />
        </mxCell>
        <mxCell id="S09NeGv9XtgrJAgJKScN-10" value="успешно" style="rhombus;whiteSpace=wrap;html=1;" vertex="1" parent="WIyWlLk6GJQsqaUBKTNV-1">
          <mxGeometry x="390" y="230" width="60" height="30" as="geometry" />
        </mxCell>
        <mxCell id="S09NeGv9XtgrJAgJKScN-22" value="нет" style="text;html=1;strokeColor=none;fillColor=none;align=center;verticalAlign=middle;whiteSpace=wrap;rounded=0;" vertex="1" parent="WIyWlLk6GJQsqaUBKTNV-1">
          <mxGeometry x="490" y="220" width="60" height="30" as="geometry" />
        </mxCell>
        <mxCell id="S09NeGv9XtgrJAgJKScN-28" style="edgeStyle=orthogonalEdgeStyle;rounded=0;orthogonalLoop=1;jettySize=auto;html=1;exitX=0.5;exitY=1;exitDx=0;exitDy=0;" edge="1" parent="WIyWlLk6GJQsqaUBKTNV-1" source="S09NeGv9XtgrJAgJKScN-25" target="S09NeGv9XtgrJAgJKScN-27">
          <mxGeometry relative="1" as="geometry" />
        </mxCell>
        <mxCell id="S09NeGv9XtgrJAgJKScN-25" value="Видит товары для покупки на сайте." style="rounded=0;whiteSpace=wrap;html=1;" vertex="1" parent="WIyWlLk6GJQsqaUBKTNV-1">
          <mxGeometry x="340" y="290" width="160" height="60" as="geometry" />
        </mxCell>
        <mxCell id="S09NeGv9XtgrJAgJKScN-30" style="edgeStyle=orthogonalEdgeStyle;rounded=0;orthogonalLoop=1;jettySize=auto;html=1;exitX=0.5;exitY=1;exitDx=0;exitDy=0;" edge="1" parent="WIyWlLk6GJQsqaUBKTNV-1" source="S09NeGv9XtgrJAgJKScN-27" target="S09NeGv9XtgrJAgJKScN-29">
          <mxGeometry relative="1" as="geometry" />
        </mxCell>
        <mxCell id="S09NeGv9XtgrJAgJKScN-27" value="Заказ" style="rounded=0;whiteSpace=wrap;html=1;" vertex="1" parent="WIyWlLk6GJQsqaUBKTNV-1">
          <mxGeometry x="340" y="390" width="160" height="60" as="geometry" />
        </mxCell>
        <mxCell id="S09NeGv9XtgrJAgJKScN-32" style="edgeStyle=orthogonalEdgeStyle;rounded=0;orthogonalLoop=1;jettySize=auto;html=1;" edge="1" parent="WIyWlLk6GJQsqaUBKTNV-1" source="S09NeGv9XtgrJAgJKScN-29" target="S09NeGv9XtgrJAgJKScN-31">
          <mxGeometry relative="1" as="geometry" />
        </mxCell>
        <mxCell id="S09NeGv9XtgrJAgJKScN-29" value="Выбор варианта доставки" style="rounded=0;whiteSpace=wrap;html=1;" vertex="1" parent="WIyWlLk6GJQsqaUBKTNV-1">
          <mxGeometry x="340" y="490" width="160" height="60" as="geometry" />
        </mxCell>
        <mxCell id="S09NeGv9XtgrJAgJKScN-34" style="edgeStyle=orthogonalEdgeStyle;rounded=0;orthogonalLoop=1;jettySize=auto;html=1;" edge="1" parent="WIyWlLk6GJQsqaUBKTNV-1" source="S09NeGv9XtgrJAgJKScN-31" target="S09NeGv9XtgrJAgJKScN-33">
          <mxGeometry relative="1" as="geometry" />
        </mxCell>
        <mxCell id="S09NeGv9XtgrJAgJKScN-36" style="edgeStyle=orthogonalEdgeStyle;rounded=0;orthogonalLoop=1;jettySize=auto;html=1;" edge="1" parent="WIyWlLk6GJQsqaUBKTNV-1" source="S09NeGv9XtgrJAgJKScN-31" target="S09NeGv9XtgrJAgJKScN-35">
          <mxGeometry relative="1" as="geometry">
            <Array as="points">
              <mxPoint x="400" y="670" />
              <mxPoint x="300" y="670" />
            </Array>
          </mxGeometry>
        </mxCell>
        <mxCell id="S09NeGv9XtgrJAgJKScN-40" style="edgeStyle=orthogonalEdgeStyle;rounded=0;orthogonalLoop=1;jettySize=auto;html=1;exitX=0.75;exitY=1;exitDx=0;exitDy=0;entryX=0.5;entryY=0;entryDx=0;entryDy=0;" edge="1" parent="WIyWlLk6GJQsqaUBKTNV-1" source="S09NeGv9XtgrJAgJKScN-31" target="S09NeGv9XtgrJAgJKScN-37">
          <mxGeometry relative="1" as="geometry" />
        </mxCell>
        <mxCell id="S09NeGv9XtgrJAgJKScN-41" style="edgeStyle=orthogonalEdgeStyle;rounded=0;orthogonalLoop=1;jettySize=auto;html=1;exitX=1;exitY=0.75;exitDx=0;exitDy=0;entryX=0.5;entryY=0;entryDx=0;entryDy=0;" edge="1" parent="WIyWlLk6GJQsqaUBKTNV-1" source="S09NeGv9XtgrJAgJKScN-31" target="S09NeGv9XtgrJAgJKScN-38">
          <mxGeometry relative="1" as="geometry" />
        </mxCell>
        <mxCell id="S09NeGv9XtgrJAgJKScN-31" value="Стоимость и вес доставки" style="rounded=0;whiteSpace=wrap;html=1;" vertex="1" parent="WIyWlLk6GJQsqaUBKTNV-1">
          <mxGeometry x="340" y="590" width="160" height="60" as="geometry" />
        </mxCell>
        <mxCell id="S09NeGv9XtgrJAgJKScN-33" value="Почта РК, стоимость доставки и упаковки" style="rounded=0;whiteSpace=wrap;html=1;" vertex="1" parent="WIyWlLk6GJQsqaUBKTNV-1">
          <mxGeometry x="-30" y="680" width="160" height="60" as="geometry" />
        </mxCell>
        <mxCell id="S09NeGv9XtgrJAgJKScN-35" value="Курьерские компании, стоимость доставки+упаковки и страховка" style="rounded=0;whiteSpace=wrap;html=1;" vertex="1" parent="WIyWlLk6GJQsqaUBKTNV-1">
          <mxGeometry x="220" y="680" width="160" height="60" as="geometry" />
        </mxCell>
        <mxCell id="S09NeGv9XtgrJAgJKScN-37" value="Адрес клиента(город)=город склада?" style="rhombus;whiteSpace=wrap;html=1;" vertex="1" parent="WIyWlLk6GJQsqaUBKTNV-1">
          <mxGeometry x="450" y="670" width="120" height="80" as="geometry" />
        </mxCell>
        <mxCell id="S09NeGv9XtgrJAgJKScN-49" style="edgeStyle=orthogonalEdgeStyle;rounded=0;orthogonalLoop=1;jettySize=auto;html=1;exitX=1;exitY=0.5;exitDx=0;exitDy=0;entryX=0.583;entryY=0;entryDx=0;entryDy=0;entryPerimeter=0;" edge="1" parent="WIyWlLk6GJQsqaUBKTNV-1" source="S09NeGv9XtgrJAgJKScN-38" target="S09NeGv9XtgrJAgJKScN-43">
          <mxGeometry relative="1" as="geometry">
            <mxPoint x="780" y="710" as="targetPoint" />
          </mxGeometry>
        </mxCell>
        <mxCell id="S09NeGv9XtgrJAgJKScN-56" style="edgeStyle=orthogonalEdgeStyle;rounded=0;orthogonalLoop=1;jettySize=auto;html=1;exitX=0;exitY=1;exitDx=0;exitDy=0;" edge="1" parent="WIyWlLk6GJQsqaUBKTNV-1" source="S09NeGv9XtgrJAgJKScN-38" target="S09NeGv9XtgrJAgJKScN-55">
          <mxGeometry relative="1" as="geometry">
            <Array as="points">
              <mxPoint x="660" y="730" />
            </Array>
          </mxGeometry>
        </mxCell>
        <mxCell id="S09NeGv9XtgrJAgJKScN-38" value="Адрес клиента(город)=город склада?" style="rhombus;whiteSpace=wrap;html=1;" vertex="1" parent="WIyWlLk6GJQsqaUBKTNV-1">
          <mxGeometry x="640" y="670" width="120" height="80" as="geometry" />
        </mxCell>
        <mxCell id="S09NeGv9XtgrJAgJKScN-57" style="edgeStyle=orthogonalEdgeStyle;rounded=0;orthogonalLoop=1;jettySize=auto;html=1;exitX=0;exitY=0.5;exitDx=0;exitDy=0;entryX=0;entryY=0.5;entryDx=0;entryDy=0;" edge="1" parent="WIyWlLk6GJQsqaUBKTNV-1" source="S09NeGv9XtgrJAgJKScN-42" target="S09NeGv9XtgrJAgJKScN-55">
          <mxGeometry relative="1" as="geometry" />
        </mxCell>
        <mxCell id="S09NeGv9XtgrJAgJKScN-42" value="Собственная служба доставки&lt;br&gt;Стоимость доставки+упаковки&amp;nbsp;" style="rounded=0;whiteSpace=wrap;html=1;" vertex="1" parent="WIyWlLk6GJQsqaUBKTNV-1">
          <mxGeometry x="520" y="760" width="120" height="60" as="geometry" />
        </mxCell>
        <mxCell id="S09NeGv9XtgrJAgJKScN-43" value="Самовывоз+стоимость упаковки" style="rounded=0;whiteSpace=wrap;html=1;" vertex="1" parent="WIyWlLk6GJQsqaUBKTNV-1">
          <mxGeometry x="710" y="760" width="120" height="60" as="geometry" />
        </mxCell>
        <mxCell id="S09NeGv9XtgrJAgJKScN-47" value="" style="endArrow=classic;html=1;rounded=0;exitX=1;exitY=0.5;exitDx=0;exitDy=0;entryX=0.5;entryY=0;entryDx=0;entryDy=0;" edge="1" parent="WIyWlLk6GJQsqaUBKTNV-1" source="S09NeGv9XtgrJAgJKScN-37" target="S09NeGv9XtgrJAgJKScN-42">
          <mxGeometry width="50" height="50" relative="1" as="geometry">
            <mxPoint x="670" y="580" as="sourcePoint" />
            <mxPoint x="570" y="760" as="targetPoint" />
            <Array as="points">
              <mxPoint x="580" y="730" />
            </Array>
          </mxGeometry>
        </mxCell>
        <mxCell id="S09NeGv9XtgrJAgJKScN-50" value="да" style="text;html=1;strokeColor=none;fillColor=none;align=center;verticalAlign=middle;whiteSpace=wrap;rounded=0;" vertex="1" parent="WIyWlLk6GJQsqaUBKTNV-1">
          <mxGeometry x="560" y="720" width="60" height="30" as="geometry" />
        </mxCell>
        <mxCell id="S09NeGv9XtgrJAgJKScN-51" value="да" style="text;html=1;strokeColor=none;fillColor=none;align=center;verticalAlign=middle;whiteSpace=wrap;rounded=0;" vertex="1" parent="WIyWlLk6GJQsqaUBKTNV-1">
          <mxGeometry x="767" y="710" width="60" height="30" as="geometry" />
        </mxCell>
        <mxCell id="S09NeGv9XtgrJAgJKScN-55" value="не показывать" style="ellipse;whiteSpace=wrap;html=1;" vertex="1" parent="WIyWlLk6GJQsqaUBKTNV-1">
          <mxGeometry x="600" y="880" width="120" height="50" as="geometry" />
        </mxCell>
        <mxCell id="S09NeGv9XtgrJAgJKScN-58" value="нет" style="text;html=1;strokeColor=none;fillColor=none;align=center;verticalAlign=middle;whiteSpace=wrap;rounded=0;" vertex="1" parent="WIyWlLk6GJQsqaUBKTNV-1">
          <mxGeometry x="460" y="820" width="60" height="30" as="geometry" />
        </mxCell>
        <mxCell id="S09NeGv9XtgrJAgJKScN-59" value="нет" style="text;html=1;strokeColor=none;fillColor=none;align=center;verticalAlign=middle;whiteSpace=wrap;rounded=0;" vertex="1" parent="WIyWlLk6GJQsqaUBKTNV-1">
          <mxGeometry x="620" y="830" width="60" height="30" as="geometry" />
        </mxCell>
        <mxCell id="S09NeGv9XtgrJAgJKScN-63" value="" style="endArrow=none;html=1;rounded=0;exitX=0;exitY=0;exitDx=0;exitDy=0;" edge="1" parent="WIyWlLk6GJQsqaUBKTNV-1" source="S09NeGv9XtgrJAgJKScN-31">
          <mxGeometry width="50" height="50" relative="1" as="geometry">
            <mxPoint x="330" y="590" as="sourcePoint" />
            <mxPoint x="-50" y="590" as="targetPoint" />
          </mxGeometry>
        </mxCell>
        <mxCell id="S09NeGv9XtgrJAgJKScN-64" value="" style="endArrow=none;html=1;rounded=0;" edge="1" parent="WIyWlLk6GJQsqaUBKTNV-1">
          <mxGeometry width="50" height="50" relative="1" as="geometry">
            <mxPoint x="-50" y="590" as="sourcePoint" />
            <mxPoint x="-50" y="960" as="targetPoint" />
          </mxGeometry>
        </mxCell>
        <mxCell id="S09NeGv9XtgrJAgJKScN-65" value="" style="endArrow=none;html=1;rounded=0;" edge="1" parent="WIyWlLk6GJQsqaUBKTNV-1">
          <mxGeometry width="50" height="50" relative="1" as="geometry">
            <mxPoint x="-50" y="960" as="sourcePoint" />
            <mxPoint x="840" y="960" as="targetPoint" />
          </mxGeometry>
        </mxCell>
        <mxCell id="S09NeGv9XtgrJAgJKScN-66" value="" style="endArrow=none;html=1;rounded=0;" edge="1" parent="WIyWlLk6GJQsqaUBKTNV-1">
          <mxGeometry width="50" height="50" relative="1" as="geometry">
            <mxPoint x="840.800048828125" y="960" as="sourcePoint" />
            <mxPoint x="840" y="590" as="targetPoint" />
          </mxGeometry>
        </mxCell>
        <mxCell id="S09NeGv9XtgrJAgJKScN-67" value="" style="endArrow=none;html=1;rounded=0;exitX=1;exitY=0;exitDx=0;exitDy=0;" edge="1" parent="WIyWlLk6GJQsqaUBKTNV-1" source="S09NeGv9XtgrJAgJKScN-31">
          <mxGeometry width="50" height="50" relative="1" as="geometry">
            <mxPoint x="360" y="790" as="sourcePoint" />
            <mxPoint x="840" y="590" as="targetPoint" />
          </mxGeometry>
        </mxCell>
        <mxCell id="S09NeGv9XtgrJAgJKScN-68" value="" style="endArrow=classic;html=1;rounded=0;" edge="1" parent="WIyWlLk6GJQsqaUBKTNV-1">
          <mxGeometry width="50" height="50" relative="1" as="geometry">
            <mxPoint x="420" y="960" as="sourcePoint" />
            <mxPoint x="420" y="1000" as="targetPoint" />
          </mxGeometry>
        </mxCell>
        <mxCell id="S09NeGv9XtgrJAgJKScN-71" style="edgeStyle=orthogonalEdgeStyle;rounded=0;orthogonalLoop=1;jettySize=auto;html=1;" edge="1" parent="WIyWlLk6GJQsqaUBKTNV-1" source="S09NeGv9XtgrJAgJKScN-69" target="S09NeGv9XtgrJAgJKScN-70">
          <mxGeometry relative="1" as="geometry" />
        </mxCell>
        <mxCell id="S09NeGv9XtgrJAgJKScN-69" value="Оплата" style="rounded=0;whiteSpace=wrap;html=1;" vertex="1" parent="WIyWlLk6GJQsqaUBKTNV-1">
          <mxGeometry x="360" y="1000" width="120" height="60" as="geometry" />
        </mxCell>
        <mxCell id="S09NeGv9XtgrJAgJKScN-73" style="edgeStyle=orthogonalEdgeStyle;rounded=0;orthogonalLoop=1;jettySize=auto;html=1;" edge="1" parent="WIyWlLk6GJQsqaUBKTNV-1" source="S09NeGv9XtgrJAgJKScN-70" target="S09NeGv9XtgrJAgJKScN-72">
          <mxGeometry relative="1" as="geometry" />
        </mxCell>
        <mxCell id="S09NeGv9XtgrJAgJKScN-75" style="edgeStyle=orthogonalEdgeStyle;rounded=0;orthogonalLoop=1;jettySize=auto;html=1;" edge="1" parent="WIyWlLk6GJQsqaUBKTNV-1" source="S09NeGv9XtgrJAgJKScN-70" target="S09NeGv9XtgrJAgJKScN-74">
          <mxGeometry relative="1" as="geometry" />
        </mxCell>
        <mxCell id="S09NeGv9XtgrJAgJKScN-77" style="edgeStyle=orthogonalEdgeStyle;rounded=0;orthogonalLoop=1;jettySize=auto;html=1;" edge="1" parent="WIyWlLk6GJQsqaUBKTNV-1" source="S09NeGv9XtgrJAgJKScN-70" target="S09NeGv9XtgrJAgJKScN-81">
          <mxGeometry relative="1" as="geometry">
            <mxPoint x="420" y="1169" as="targetPoint" />
          </mxGeometry>
        </mxCell>
        <mxCell id="S09NeGv9XtgrJAgJKScN-79" style="edgeStyle=orthogonalEdgeStyle;rounded=0;orthogonalLoop=1;jettySize=auto;html=1;" edge="1" parent="WIyWlLk6GJQsqaUBKTNV-1" source="S09NeGv9XtgrJAgJKScN-70" target="S09NeGv9XtgrJAgJKScN-80">
          <mxGeometry relative="1" as="geometry">
            <mxPoint x="590" y="1169" as="targetPoint" />
          </mxGeometry>
        </mxCell>
        <mxCell id="S09NeGv9XtgrJAgJKScN-70" value="Выбор варианта оплаты" style="rounded=0;whiteSpace=wrap;html=1;" vertex="1" parent="WIyWlLk6GJQsqaUBKTNV-1">
          <mxGeometry x="360" y="1090" width="120" height="60" as="geometry" />
        </mxCell>
        <mxCell id="S09NeGv9XtgrJAgJKScN-72" value="Оплата картой/электронными деньгами" style="rounded=0;whiteSpace=wrap;html=1;" vertex="1" parent="WIyWlLk6GJQsqaUBKTNV-1">
          <mxGeometry x="80" y="1179" width="120" height="60" as="geometry" />
        </mxCell>
        <mxCell id="S09NeGv9XtgrJAgJKScN-74" value="Расчетный счет" style="rounded=0;whiteSpace=wrap;html=1;" vertex="1" parent="WIyWlLk6GJQsqaUBKTNV-1">
          <mxGeometry x="210" y="1179" width="120" height="60" as="geometry" />
        </mxCell>
        <mxCell id="S09NeGv9XtgrJAgJKScN-94" style="edgeStyle=orthogonalEdgeStyle;rounded=0;orthogonalLoop=1;jettySize=auto;html=1;exitX=1;exitY=0.5;exitDx=0;exitDy=0;entryX=1;entryY=0.5;entryDx=0;entryDy=0;" edge="1" parent="WIyWlLk6GJQsqaUBKTNV-1" source="S09NeGv9XtgrJAgJKScN-80" target="S09NeGv9XtgrJAgJKScN-95">
          <mxGeometry relative="1" as="geometry">
            <mxPoint x="710" y="1330" as="targetPoint" />
          </mxGeometry>
        </mxCell>
        <mxCell id="S09NeGv9XtgrJAgJKScN-80" value="Вариант доставки курьер или самовывоз" style="rhombus;whiteSpace=wrap;html=1;" vertex="1" parent="WIyWlLk6GJQsqaUBKTNV-1">
          <mxGeometry x="590" y="1178.5" width="100" height="61" as="geometry" />
        </mxCell>
        <mxCell id="S09NeGv9XtgrJAgJKScN-90" style="edgeStyle=orthogonalEdgeStyle;rounded=0;orthogonalLoop=1;jettySize=auto;html=1;exitX=0;exitY=1;exitDx=0;exitDy=0;" edge="1" parent="WIyWlLk6GJQsqaUBKTNV-1" source="S09NeGv9XtgrJAgJKScN-81" target="S09NeGv9XtgrJAgJKScN-91">
          <mxGeometry relative="1" as="geometry">
            <mxPoint x="395" y="1260" as="targetPoint" />
            <Array as="points">
              <mxPoint x="420" y="1225" />
            </Array>
          </mxGeometry>
        </mxCell>
        <mxCell id="S09NeGv9XtgrJAgJKScN-81" value="Вариант доставки почта РК" style="rhombus;whiteSpace=wrap;html=1;" vertex="1" parent="WIyWlLk6GJQsqaUBKTNV-1">
          <mxGeometry x="370" y="1179" width="100" height="61" as="geometry" />
        </mxCell>
        <mxCell id="S09NeGv9XtgrJAgJKScN-82" value="" style="endArrow=none;html=1;rounded=0;exitX=1;exitY=0.5;exitDx=0;exitDy=0;entryX=0;entryY=0.5;entryDx=0;entryDy=0;" edge="1" parent="WIyWlLk6GJQsqaUBKTNV-1" source="S09NeGv9XtgrJAgJKScN-81" target="S09NeGv9XtgrJAgJKScN-80">
          <mxGeometry width="50" height="50" relative="1" as="geometry">
            <mxPoint x="510" y="1250" as="sourcePoint" />
            <mxPoint x="560" y="1200" as="targetPoint" />
          </mxGeometry>
        </mxCell>
        <mxCell id="S09NeGv9XtgrJAgJKScN-83" value="" style="endArrow=classic;html=1;rounded=0;" edge="1" parent="WIyWlLk6GJQsqaUBKTNV-1">
          <mxGeometry width="50" height="50" relative="1" as="geometry">
            <mxPoint x="540" y="1210" as="sourcePoint" />
            <mxPoint x="540" y="1280" as="targetPoint" />
          </mxGeometry>
        </mxCell>
        <mxCell id="S09NeGv9XtgrJAgJKScN-84" value="нет" style="text;html=1;strokeColor=none;fillColor=none;align=center;verticalAlign=middle;whiteSpace=wrap;rounded=0;" vertex="1" parent="WIyWlLk6GJQsqaUBKTNV-1">
          <mxGeometry x="500" y="1220" width="60" height="30" as="geometry" />
        </mxCell>
        <mxCell id="S09NeGv9XtgrJAgJKScN-85" value="не показывать" style="ellipse;whiteSpace=wrap;html=1;" vertex="1" parent="WIyWlLk6GJQsqaUBKTNV-1">
          <mxGeometry x="500" y="1280" width="70" height="40" as="geometry" />
        </mxCell>
        <mxCell id="S09NeGv9XtgrJAgJKScN-91" value="наложенный платеж" style="rounded=0;whiteSpace=wrap;html=1;" vertex="1" parent="WIyWlLk6GJQsqaUBKTNV-1">
          <mxGeometry x="385" y="1280" width="70" height="40" as="geometry" />
        </mxCell>
        <mxCell id="S09NeGv9XtgrJAgJKScN-92" value="да" style="text;html=1;strokeColor=none;fillColor=none;align=center;verticalAlign=middle;whiteSpace=wrap;rounded=0;" vertex="1" parent="WIyWlLk6GJQsqaUBKTNV-1">
          <mxGeometry x="380" y="1239" width="60" height="30" as="geometry" />
        </mxCell>
        <mxCell id="S09NeGv9XtgrJAgJKScN-95" value="оплата при получении&lt;br&gt;(курьер)" style="rounded=0;whiteSpace=wrap;html=1;" vertex="1" parent="WIyWlLk6GJQsqaUBKTNV-1">
          <mxGeometry x="620" y="1280" width="70" height="40" as="geometry" />
        </mxCell>
        <mxCell id="S09NeGv9XtgrJAgJKScN-96" value="&lt;br&gt;&lt;span style=&quot;color: rgb(0, 0, 0); font-family: Helvetica; font-size: 12px; font-style: normal; font-variant-ligatures: normal; font-variant-caps: normal; font-weight: 400; letter-spacing: normal; orphans: 2; text-align: center; text-indent: 0px; text-transform: none; widows: 2; word-spacing: 0px; -webkit-text-stroke-width: 0px; background-color: rgb(251, 251, 251); text-decoration-thickness: initial; text-decoration-style: initial; text-decoration-color: initial; float: none; display: inline !important;&quot;&gt;оплата при получении&lt;/span&gt;&lt;br style=&quot;border-color: var(--border-color); color: rgb(0, 0, 0); font-family: Helvetica; font-size: 12px; font-style: normal; font-variant-ligatures: normal; font-variant-caps: normal; font-weight: 400; letter-spacing: normal; orphans: 2; text-align: center; text-indent: 0px; text-transform: none; widows: 2; word-spacing: 0px; -webkit-text-stroke-width: 0px; background-color: rgb(251, 251, 251); text-decoration-thickness: initial; text-decoration-style: initial; text-decoration-color: initial;&quot;&gt;&lt;span style=&quot;color: rgb(0, 0, 0); font-family: Helvetica; font-size: 12px; font-style: normal; font-variant-ligatures: normal; font-variant-caps: normal; font-weight: 400; letter-spacing: normal; orphans: 2; text-align: center; text-indent: 0px; text-transform: none; widows: 2; word-spacing: 0px; -webkit-text-stroke-width: 0px; background-color: rgb(251, 251, 251); text-decoration-thickness: initial; text-decoration-style: initial; text-decoration-color: initial; float: none; display: inline !important;&quot;&gt;(самовывоз)&lt;/span&gt;&lt;br&gt;" style="rounded=0;whiteSpace=wrap;html=1;" vertex="1" parent="WIyWlLk6GJQsqaUBKTNV-1">
          <mxGeometry x="620" y="1340" width="70" height="50" as="geometry" />
        </mxCell>
        <mxCell id="S09NeGv9XtgrJAgJKScN-98" value="" style="endArrow=none;html=1;rounded=0;" edge="1" parent="WIyWlLk6GJQsqaUBKTNV-1">
          <mxGeometry width="50" height="50" relative="1" as="geometry">
            <mxPoint x="710" y="1300" as="sourcePoint" />
            <mxPoint x="710" y="1360" as="targetPoint" />
          </mxGeometry>
        </mxCell>
        <mxCell id="S09NeGv9XtgrJAgJKScN-99" value="" style="endArrow=classic;html=1;rounded=0;entryX=1;entryY=0.5;entryDx=0;entryDy=0;" edge="1" parent="WIyWlLk6GJQsqaUBKTNV-1" target="S09NeGv9XtgrJAgJKScN-96">
          <mxGeometry width="50" height="50" relative="1" as="geometry">
            <mxPoint x="710" y="1360" as="sourcePoint" />
            <mxPoint x="410" y="1140" as="targetPoint" />
          </mxGeometry>
        </mxCell>
        <mxCell id="S09NeGv9XtgrJAgJKScN-100" value="" style="endArrow=none;html=1;rounded=0;entryX=0;entryY=0;entryDx=0;entryDy=0;" edge="1" parent="WIyWlLk6GJQsqaUBKTNV-1" target="S09NeGv9XtgrJAgJKScN-69">
          <mxGeometry width="50" height="50" relative="1" as="geometry">
            <mxPoint x="40" y="1000" as="sourcePoint" />
            <mxPoint x="410" y="1130" as="targetPoint" />
          </mxGeometry>
        </mxCell>
        <mxCell id="S09NeGv9XtgrJAgJKScN-101" value="" style="endArrow=none;html=1;rounded=0;" edge="1" parent="WIyWlLk6GJQsqaUBKTNV-1">
          <mxGeometry width="50" height="50" relative="1" as="geometry">
            <mxPoint x="40" y="1420" as="sourcePoint" />
            <mxPoint x="40" y="1000" as="targetPoint" />
          </mxGeometry>
        </mxCell>
        <mxCell id="S09NeGv9XtgrJAgJKScN-102" value="" style="endArrow=none;html=1;rounded=0;" edge="1" parent="WIyWlLk6GJQsqaUBKTNV-1">
          <mxGeometry width="50" height="50" relative="1" as="geometry">
            <mxPoint x="40" y="1420" as="sourcePoint" />
            <mxPoint x="740" y="1420" as="targetPoint" />
          </mxGeometry>
        </mxCell>
        <mxCell id="S09NeGv9XtgrJAgJKScN-103" value="" style="endArrow=none;html=1;rounded=0;" edge="1" parent="WIyWlLk6GJQsqaUBKTNV-1">
          <mxGeometry width="50" height="50" relative="1" as="geometry">
            <mxPoint x="740" y="1420" as="sourcePoint" />
            <mxPoint x="740" y="1000" as="targetPoint" />
          </mxGeometry>
        </mxCell>
        <mxCell id="S09NeGv9XtgrJAgJKScN-104" value="" style="endArrow=none;html=1;rounded=0;exitX=1;exitY=0;exitDx=0;exitDy=0;" edge="1" parent="WIyWlLk6GJQsqaUBKTNV-1" source="S09NeGv9XtgrJAgJKScN-69">
          <mxGeometry width="50" height="50" relative="1" as="geometry">
            <mxPoint x="430" y="1250" as="sourcePoint" />
            <mxPoint x="740" y="1000" as="targetPoint" />
          </mxGeometry>
        </mxCell>
        <mxCell id="S09NeGv9XtgrJAgJKScN-108" style="edgeStyle=orthogonalEdgeStyle;rounded=0;orthogonalLoop=1;jettySize=auto;html=1;" edge="1" parent="WIyWlLk6GJQsqaUBKTNV-1" source="S09NeGv9XtgrJAgJKScN-105" target="S09NeGv9XtgrJAgJKScN-107">
          <mxGeometry relative="1" as="geometry" />
        </mxCell>
        <mxCell id="S09NeGv9XtgrJAgJKScN-105" value="Заказ создан" style="rounded=0;whiteSpace=wrap;html=1;" vertex="1" parent="WIyWlLk6GJQsqaUBKTNV-1">
          <mxGeometry x="360" y="1460" width="120" height="60" as="geometry" />
        </mxCell>
        <mxCell id="S09NeGv9XtgrJAgJKScN-106" value="" style="endArrow=classic;html=1;rounded=0;entryX=0.5;entryY=0;entryDx=0;entryDy=0;" edge="1" parent="WIyWlLk6GJQsqaUBKTNV-1" target="S09NeGv9XtgrJAgJKScN-105">
          <mxGeometry width="50" height="50" relative="1" as="geometry">
            <mxPoint x="420" y="1420" as="sourcePoint" />
            <mxPoint x="480" y="1300" as="targetPoint" />
          </mxGeometry>
        </mxCell>
        <mxCell id="S09NeGv9XtgrJAgJKScN-112" style="edgeStyle=orthogonalEdgeStyle;rounded=0;orthogonalLoop=1;jettySize=auto;html=1;exitX=0.5;exitY=1;exitDx=0;exitDy=0;entryX=0.5;entryY=0;entryDx=0;entryDy=0;" edge="1" parent="WIyWlLk6GJQsqaUBKTNV-1" source="S09NeGv9XtgrJAgJKScN-107" target="S09NeGv9XtgrJAgJKScN-111">
          <mxGeometry relative="1" as="geometry" />
        </mxCell>
        <mxCell id="S09NeGv9XtgrJAgJKScN-107" value="SMS/Email подтверждение о создании заказа" style="rounded=0;whiteSpace=wrap;html=1;" vertex="1" parent="WIyWlLk6GJQsqaUBKTNV-1">
          <mxGeometry x="360" y="1550" width="120" height="60" as="geometry" />
        </mxCell>
        <mxCell id="S09NeGv9XtgrJAgJKScN-109" value="да" style="text;html=1;strokeColor=none;fillColor=none;align=center;verticalAlign=middle;whiteSpace=wrap;rounded=0;" vertex="1" parent="WIyWlLk6GJQsqaUBKTNV-1">
          <mxGeometry x="690" y="1285" width="60" height="30" as="geometry" />
        </mxCell>
        <mxCell id="S09NeGv9XtgrJAgJKScN-110" value="да" style="text;html=1;strokeColor=none;fillColor=none;align=center;verticalAlign=middle;whiteSpace=wrap;rounded=0;" vertex="1" parent="WIyWlLk6GJQsqaUBKTNV-1">
          <mxGeometry x="690" y="1340" width="60" height="30" as="geometry" />
        </mxCell>
        <mxCell id="S09NeGv9XtgrJAgJKScN-114" style="edgeStyle=orthogonalEdgeStyle;rounded=0;orthogonalLoop=1;jettySize=auto;html=1;" edge="1" parent="WIyWlLk6GJQsqaUBKTNV-1" source="S09NeGv9XtgrJAgJKScN-111" target="S09NeGv9XtgrJAgJKScN-113">
          <mxGeometry relative="1" as="geometry" />
        </mxCell>
        <mxCell id="S09NeGv9XtgrJAgJKScN-120" style="edgeStyle=orthogonalEdgeStyle;rounded=0;orthogonalLoop=1;jettySize=auto;html=1;exitX=0;exitY=0.5;exitDx=0;exitDy=0;entryX=0.5;entryY=0;entryDx=0;entryDy=0;" edge="1" parent="WIyWlLk6GJQsqaUBKTNV-1" source="S09NeGv9XtgrJAgJKScN-111" target="S09NeGv9XtgrJAgJKScN-119">
          <mxGeometry relative="1" as="geometry" />
        </mxCell>
        <mxCell id="S09NeGv9XtgrJAgJKScN-111" value="Вариант оплаты = карта или электронный деньги" style="rhombus;whiteSpace=wrap;html=1;" vertex="1" parent="WIyWlLk6GJQsqaUBKTNV-1">
          <mxGeometry x="370" y="1640" width="100" height="80" as="geometry" />
        </mxCell>
        <mxCell id="S09NeGv9XtgrJAgJKScN-116" style="edgeStyle=orthogonalEdgeStyle;rounded=0;orthogonalLoop=1;jettySize=auto;html=1;" edge="1" parent="WIyWlLk6GJQsqaUBKTNV-1" source="S09NeGv9XtgrJAgJKScN-113" target="S09NeGv9XtgrJAgJKScN-115">
          <mxGeometry relative="1" as="geometry" />
        </mxCell>
        <mxCell id="S09NeGv9XtgrJAgJKScN-139" style="edgeStyle=orthogonalEdgeStyle;rounded=0;orthogonalLoop=1;jettySize=auto;html=1;exitX=0.5;exitY=1;exitDx=0;exitDy=0;entryX=0.5;entryY=0;entryDx=0;entryDy=0;" edge="1" parent="WIyWlLk6GJQsqaUBKTNV-1" source="S09NeGv9XtgrJAgJKScN-113" target="S09NeGv9XtgrJAgJKScN-137">
          <mxGeometry relative="1" as="geometry" />
        </mxCell>
        <mxCell id="S09NeGv9XtgrJAgJKScN-113" value="На расчетный счет" style="rhombus;whiteSpace=wrap;html=1;" vertex="1" parent="WIyWlLk6GJQsqaUBKTNV-1">
          <mxGeometry x="510" y="1640" width="100" height="80" as="geometry" />
        </mxCell>
        <mxCell id="S09NeGv9XtgrJAgJKScN-118" style="edgeStyle=orthogonalEdgeStyle;rounded=0;orthogonalLoop=1;jettySize=auto;html=1;" edge="1" parent="WIyWlLk6GJQsqaUBKTNV-1" source="S09NeGv9XtgrJAgJKScN-115" target="S09NeGv9XtgrJAgJKScN-117">
          <mxGeometry relative="1" as="geometry" />
        </mxCell>
        <mxCell id="S09NeGv9XtgrJAgJKScN-175" style="edgeStyle=orthogonalEdgeStyle;rounded=0;orthogonalLoop=1;jettySize=auto;html=1;exitX=0.5;exitY=1;exitDx=0;exitDy=0;entryX=1;entryY=0.5;entryDx=0;entryDy=0;" edge="1" parent="WIyWlLk6GJQsqaUBKTNV-1" source="S09NeGv9XtgrJAgJKScN-115" target="S09NeGv9XtgrJAgJKScN-173">
          <mxGeometry relative="1" as="geometry" />
        </mxCell>
        <mxCell id="S09NeGv9XtgrJAgJKScN-115" value="Наличные курьеру или самовывоз" style="rhombus;whiteSpace=wrap;html=1;" vertex="1" parent="WIyWlLk6GJQsqaUBKTNV-1">
          <mxGeometry x="650" y="1640" width="100" height="80" as="geometry" />
        </mxCell>
        <mxCell id="S09NeGv9XtgrJAgJKScN-176" style="edgeStyle=orthogonalEdgeStyle;rounded=0;orthogonalLoop=1;jettySize=auto;html=1;exitX=0.5;exitY=1;exitDx=0;exitDy=0;entryX=1;entryY=0.5;entryDx=0;entryDy=0;" edge="1" parent="WIyWlLk6GJQsqaUBKTNV-1" source="S09NeGv9XtgrJAgJKScN-117" target="S09NeGv9XtgrJAgJKScN-173">
          <mxGeometry relative="1" as="geometry" />
        </mxCell>
        <mxCell id="S09NeGv9XtgrJAgJKScN-117" value="Наложенный платеж" style="rhombus;whiteSpace=wrap;html=1;" vertex="1" parent="WIyWlLk6GJQsqaUBKTNV-1">
          <mxGeometry x="790" y="1640" width="100" height="80" as="geometry" />
        </mxCell>
        <mxCell id="S09NeGv9XtgrJAgJKScN-127" style="edgeStyle=orthogonalEdgeStyle;rounded=0;orthogonalLoop=1;jettySize=auto;html=1;exitX=0;exitY=0.5;exitDx=0;exitDy=0;" edge="1" parent="WIyWlLk6GJQsqaUBKTNV-1" source="S09NeGv9XtgrJAgJKScN-119" target="S09NeGv9XtgrJAgJKScN-128">
          <mxGeometry relative="1" as="geometry">
            <mxPoint x="220" y="1840" as="targetPoint" />
          </mxGeometry>
        </mxCell>
        <mxCell id="S09NeGv9XtgrJAgJKScN-130" style="edgeStyle=orthogonalEdgeStyle;rounded=0;orthogonalLoop=1;jettySize=auto;html=1;exitX=1;exitY=0.5;exitDx=0;exitDy=0;" edge="1" parent="WIyWlLk6GJQsqaUBKTNV-1" source="S09NeGv9XtgrJAgJKScN-119">
          <mxGeometry relative="1" as="geometry">
            <mxPoint x="360" y="1840" as="targetPoint" />
          </mxGeometry>
        </mxCell>
        <mxCell id="S09NeGv9XtgrJAgJKScN-119" value="Оплачен" style="rhombus;whiteSpace=wrap;html=1;" vertex="1" parent="WIyWlLk6GJQsqaUBKTNV-1">
          <mxGeometry x="240" y="1740" width="100" height="80" as="geometry" />
        </mxCell>
        <mxCell id="S09NeGv9XtgrJAgJKScN-121" value="нет" style="text;html=1;strokeColor=none;fillColor=none;align=center;verticalAlign=middle;whiteSpace=wrap;rounded=0;" vertex="1" parent="WIyWlLk6GJQsqaUBKTNV-1">
          <mxGeometry x="455" y="1660" width="60" height="30" as="geometry" />
        </mxCell>
        <mxCell id="S09NeGv9XtgrJAgJKScN-122" value="нет" style="text;html=1;strokeColor=none;fillColor=none;align=center;verticalAlign=middle;whiteSpace=wrap;rounded=0;" vertex="1" parent="WIyWlLk6GJQsqaUBKTNV-1">
          <mxGeometry x="600" y="1660" width="60" height="30" as="geometry" />
        </mxCell>
        <mxCell id="S09NeGv9XtgrJAgJKScN-123" value="нет" style="text;html=1;strokeColor=none;fillColor=none;align=center;verticalAlign=middle;whiteSpace=wrap;rounded=0;" vertex="1" parent="WIyWlLk6GJQsqaUBKTNV-1">
          <mxGeometry x="730" y="1660" width="60" height="30" as="geometry" />
        </mxCell>
        <mxCell id="S09NeGv9XtgrJAgJKScN-136" style="edgeStyle=orthogonalEdgeStyle;rounded=0;orthogonalLoop=1;jettySize=auto;html=1;" edge="1" parent="WIyWlLk6GJQsqaUBKTNV-1" source="S09NeGv9XtgrJAgJKScN-128" target="S09NeGv9XtgrJAgJKScN-135">
          <mxGeometry relative="1" as="geometry" />
        </mxCell>
        <mxCell id="S09NeGv9XtgrJAgJKScN-128" value="оплачен" style="rounded=0;whiteSpace=wrap;html=1;" vertex="1" parent="WIyWlLk6GJQsqaUBKTNV-1">
          <mxGeometry x="180" y="1840" width="80" height="30" as="geometry" />
        </mxCell>
        <mxCell id="S09NeGv9XtgrJAgJKScN-172" style="edgeStyle=orthogonalEdgeStyle;rounded=0;orthogonalLoop=1;jettySize=auto;html=1;exitX=0.5;exitY=1;exitDx=0;exitDy=0;entryX=0;entryY=0.25;entryDx=0;entryDy=0;" edge="1" parent="WIyWlLk6GJQsqaUBKTNV-1" source="S09NeGv9XtgrJAgJKScN-131" target="S09NeGv9XtgrJAgJKScN-158">
          <mxGeometry relative="1" as="geometry" />
        </mxCell>
        <mxCell id="S09NeGv9XtgrJAgJKScN-131" value="ошибка оплаты" style="rounded=0;whiteSpace=wrap;html=1;" vertex="1" parent="WIyWlLk6GJQsqaUBKTNV-1">
          <mxGeometry x="320" y="1840" width="80" height="30" as="geometry" />
        </mxCell>
        <mxCell id="S09NeGv9XtgrJAgJKScN-132" value="да" style="text;html=1;strokeColor=none;fillColor=none;align=center;verticalAlign=middle;whiteSpace=wrap;rounded=0;" vertex="1" parent="WIyWlLk6GJQsqaUBKTNV-1">
          <mxGeometry x="200" y="1790" width="60" height="30" as="geometry" />
        </mxCell>
        <mxCell id="S09NeGv9XtgrJAgJKScN-134" value="нет" style="text;html=1;strokeColor=none;fillColor=none;align=center;verticalAlign=middle;whiteSpace=wrap;rounded=0;" vertex="1" parent="WIyWlLk6GJQsqaUBKTNV-1">
          <mxGeometry x="340" y="1790" width="60" height="30" as="geometry" />
        </mxCell>
        <mxCell id="S09NeGv9XtgrJAgJKScN-177" style="edgeStyle=orthogonalEdgeStyle;rounded=0;orthogonalLoop=1;jettySize=auto;html=1;exitX=0.5;exitY=1;exitDx=0;exitDy=0;entryX=0;entryY=0.25;entryDx=0;entryDy=0;" edge="1" parent="WIyWlLk6GJQsqaUBKTNV-1" source="S09NeGv9XtgrJAgJKScN-135" target="S09NeGv9XtgrJAgJKScN-173">
          <mxGeometry relative="1" as="geometry" />
        </mxCell>
        <mxCell id="S09NeGv9XtgrJAgJKScN-135" value="SMS подтверждение о оплате" style="rounded=0;whiteSpace=wrap;html=1;" vertex="1" parent="WIyWlLk6GJQsqaUBKTNV-1">
          <mxGeometry x="180" y="1895" width="80" height="45" as="geometry" />
        </mxCell>
        <mxCell id="S09NeGv9XtgrJAgJKScN-141" style="edgeStyle=orthogonalEdgeStyle;rounded=0;orthogonalLoop=1;jettySize=auto;html=1;" edge="1" parent="WIyWlLk6GJQsqaUBKTNV-1" source="S09NeGv9XtgrJAgJKScN-137" target="S09NeGv9XtgrJAgJKScN-142">
          <mxGeometry relative="1" as="geometry">
            <mxPoint x="560" y="1847" as="targetPoint" />
          </mxGeometry>
        </mxCell>
        <mxCell id="S09NeGv9XtgrJAgJKScN-137" value="Ожидание оплаты&amp;nbsp;" style="rounded=0;whiteSpace=wrap;html=1;" vertex="1" parent="WIyWlLk6GJQsqaUBKTNV-1">
          <mxGeometry x="510" y="1754" width="100" height="46" as="geometry" />
        </mxCell>
        <mxCell id="S09NeGv9XtgrJAgJKScN-144" style="edgeStyle=orthogonalEdgeStyle;rounded=0;orthogonalLoop=1;jettySize=auto;html=1;" edge="1" parent="WIyWlLk6GJQsqaUBKTNV-1" source="S09NeGv9XtgrJAgJKScN-142">
          <mxGeometry relative="1" as="geometry">
            <mxPoint x="640" y="1905" as="targetPoint" />
          </mxGeometry>
        </mxCell>
        <mxCell id="S09NeGv9XtgrJAgJKScN-149" style="edgeStyle=orthogonalEdgeStyle;rounded=0;orthogonalLoop=1;jettySize=auto;html=1;exitX=0;exitY=0.5;exitDx=0;exitDy=0;" edge="1" parent="WIyWlLk6GJQsqaUBKTNV-1" source="S09NeGv9XtgrJAgJKScN-150">
          <mxGeometry relative="1" as="geometry">
            <mxPoint x="485" y="1900" as="targetPoint" />
          </mxGeometry>
        </mxCell>
        <mxCell id="S09NeGv9XtgrJAgJKScN-142" value="Оплачен?" style="rhombus;whiteSpace=wrap;html=1;" vertex="1" parent="WIyWlLk6GJQsqaUBKTNV-1">
          <mxGeometry x="520" y="1830" width="80" height="50" as="geometry" />
        </mxCell>
        <mxCell id="S09NeGv9XtgrJAgJKScN-145" value="да" style="text;html=1;strokeColor=none;fillColor=none;align=center;verticalAlign=middle;whiteSpace=wrap;rounded=0;" vertex="1" parent="WIyWlLk6GJQsqaUBKTNV-1">
          <mxGeometry x="600" y="1830" width="60" height="30" as="geometry" />
        </mxCell>
        <mxCell id="S09NeGv9XtgrJAgJKScN-151" value="" style="edgeStyle=orthogonalEdgeStyle;rounded=0;orthogonalLoop=1;jettySize=auto;html=1;exitX=0;exitY=0.5;exitDx=0;exitDy=0;" edge="1" parent="WIyWlLk6GJQsqaUBKTNV-1" source="S09NeGv9XtgrJAgJKScN-142" target="S09NeGv9XtgrJAgJKScN-150">
          <mxGeometry relative="1" as="geometry">
            <mxPoint x="520" y="1855" as="sourcePoint" />
            <mxPoint x="485" y="1900" as="targetPoint" />
          </mxGeometry>
        </mxCell>
        <mxCell id="S09NeGv9XtgrJAgJKScN-159" style="edgeStyle=orthogonalEdgeStyle;rounded=0;orthogonalLoop=1;jettySize=auto;html=1;" edge="1" parent="WIyWlLk6GJQsqaUBKTNV-1" source="S09NeGv9XtgrJAgJKScN-150" target="S09NeGv9XtgrJAgJKScN-158">
          <mxGeometry relative="1" as="geometry" />
        </mxCell>
        <mxCell id="S09NeGv9XtgrJAgJKScN-150" value="не оплачен в течении 3 рабочих дней" style="rounded=0;whiteSpace=wrap;html=1;" vertex="1" parent="WIyWlLk6GJQsqaUBKTNV-1">
          <mxGeometry x="460" y="1900" width="70" height="60" as="geometry" />
        </mxCell>
        <mxCell id="S09NeGv9XtgrJAgJKScN-153" value="нет" style="text;html=1;strokeColor=none;fillColor=none;align=center;verticalAlign=middle;whiteSpace=wrap;rounded=0;" vertex="1" parent="WIyWlLk6GJQsqaUBKTNV-1">
          <mxGeometry x="480" y="1830" width="60" height="30" as="geometry" />
        </mxCell>
        <mxCell id="S09NeGv9XtgrJAgJKScN-157" style="edgeStyle=orthogonalEdgeStyle;rounded=0;orthogonalLoop=1;jettySize=auto;html=1;exitX=0.5;exitY=1;exitDx=0;exitDy=0;entryX=0.5;entryY=0;entryDx=0;entryDy=0;" edge="1" parent="WIyWlLk6GJQsqaUBKTNV-1" source="S09NeGv9XtgrJAgJKScN-154" target="S09NeGv9XtgrJAgJKScN-156">
          <mxGeometry relative="1" as="geometry" />
        </mxCell>
        <mxCell id="S09NeGv9XtgrJAgJKScN-154" value="оплачен" style="rounded=0;whiteSpace=wrap;html=1;" vertex="1" parent="WIyWlLk6GJQsqaUBKTNV-1">
          <mxGeometry x="600" y="1905" width="80" height="30" as="geometry" />
        </mxCell>
        <mxCell id="S09NeGv9XtgrJAgJKScN-174" style="edgeStyle=orthogonalEdgeStyle;rounded=0;orthogonalLoop=1;jettySize=auto;html=1;exitX=0.5;exitY=1;exitDx=0;exitDy=0;entryX=1;entryY=0.5;entryDx=0;entryDy=0;" edge="1" parent="WIyWlLk6GJQsqaUBKTNV-1" source="S09NeGv9XtgrJAgJKScN-156" target="S09NeGv9XtgrJAgJKScN-173">
          <mxGeometry relative="1" as="geometry" />
        </mxCell>
        <mxCell id="S09NeGv9XtgrJAgJKScN-156" value="SMS подтверждение о оплате" style="rounded=0;whiteSpace=wrap;html=1;" vertex="1" parent="WIyWlLk6GJQsqaUBKTNV-1">
          <mxGeometry x="600" y="1970" width="80" height="45" as="geometry" />
        </mxCell>
        <mxCell id="S09NeGv9XtgrJAgJKScN-161" style="edgeStyle=orthogonalEdgeStyle;rounded=0;orthogonalLoop=1;jettySize=auto;html=1;exitX=0.5;exitY=1;exitDx=0;exitDy=0;entryX=0.5;entryY=0;entryDx=0;entryDy=0;" edge="1" parent="WIyWlLk6GJQsqaUBKTNV-1" source="S09NeGv9XtgrJAgJKScN-158" target="S09NeGv9XtgrJAgJKScN-160">
          <mxGeometry relative="1" as="geometry" />
        </mxCell>
        <mxCell id="S09NeGv9XtgrJAgJKScN-158" value="уточняем статус заказа, консультируем" style="rounded=0;whiteSpace=wrap;html=1;" vertex="1" parent="WIyWlLk6GJQsqaUBKTNV-1">
          <mxGeometry x="460" y="1980" width="70" height="60" as="geometry" />
        </mxCell>
        <mxCell id="S09NeGv9XtgrJAgJKScN-165" style="edgeStyle=orthogonalEdgeStyle;rounded=0;orthogonalLoop=1;jettySize=auto;html=1;entryX=0.5;entryY=0;entryDx=0;entryDy=0;" edge="1" parent="WIyWlLk6GJQsqaUBKTNV-1" source="S09NeGv9XtgrJAgJKScN-160" target="S09NeGv9XtgrJAgJKScN-166">
          <mxGeometry relative="1" as="geometry">
            <mxPoint x="495.5" y="2140" as="targetPoint" />
          </mxGeometry>
        </mxCell>
        <mxCell id="S09NeGv9XtgrJAgJKScN-168" style="edgeStyle=orthogonalEdgeStyle;rounded=0;orthogonalLoop=1;jettySize=auto;html=1;exitX=0;exitY=0.5;exitDx=0;exitDy=0;entryX=0.5;entryY=0;entryDx=0;entryDy=0;" edge="1" parent="WIyWlLk6GJQsqaUBKTNV-1" source="S09NeGv9XtgrJAgJKScN-160" target="S09NeGv9XtgrJAgJKScN-142">
          <mxGeometry relative="1" as="geometry" />
        </mxCell>
        <mxCell id="S09NeGv9XtgrJAgJKScN-160" value="заказ будет оплачен" style="rhombus;whiteSpace=wrap;html=1;" vertex="1" parent="WIyWlLk6GJQsqaUBKTNV-1">
          <mxGeometry x="447.5" y="2070" width="95" height="60" as="geometry" />
        </mxCell>
        <mxCell id="S09NeGv9XtgrJAgJKScN-166" value="отмена заказа" style="ellipse;whiteSpace=wrap;html=1;" vertex="1" parent="WIyWlLk6GJQsqaUBKTNV-1">
          <mxGeometry x="462.5" y="2160" width="65" height="40" as="geometry" />
        </mxCell>
        <mxCell id="S09NeGv9XtgrJAgJKScN-169" value="да" style="text;html=1;strokeColor=none;fillColor=none;align=center;verticalAlign=middle;whiteSpace=wrap;rounded=0;" vertex="1" parent="WIyWlLk6GJQsqaUBKTNV-1">
          <mxGeometry x="390" y="2040" width="60" height="30" as="geometry" />
        </mxCell>
        <mxCell id="S09NeGv9XtgrJAgJKScN-171" value="нет" style="text;html=1;strokeColor=none;fillColor=none;align=center;verticalAlign=middle;whiteSpace=wrap;rounded=0;" vertex="1" parent="WIyWlLk6GJQsqaUBKTNV-1">
          <mxGeometry x="480" y="2120" width="60" height="30" as="geometry" />
        </mxCell>
        <mxCell id="S09NeGv9XtgrJAgJKScN-179" style="edgeStyle=orthogonalEdgeStyle;rounded=0;orthogonalLoop=1;jettySize=auto;html=1;exitX=0.5;exitY=1;exitDx=0;exitDy=0;" edge="1" parent="WIyWlLk6GJQsqaUBKTNV-1" source="S09NeGv9XtgrJAgJKScN-173" target="S09NeGv9XtgrJAgJKScN-178">
          <mxGeometry relative="1" as="geometry" />
        </mxCell>
        <mxCell id="S09NeGv9XtgrJAgJKScN-173" value="Звонок, подтверждающий заказ" style="rounded=0;whiteSpace=wrap;html=1;" vertex="1" parent="WIyWlLk6GJQsqaUBKTNV-1">
          <mxGeometry x="312" y="2210" width="96" height="50" as="geometry" />
        </mxCell>
        <mxCell id="S09NeGv9XtgrJAgJKScN-181" style="edgeStyle=orthogonalEdgeStyle;rounded=0;orthogonalLoop=1;jettySize=auto;html=1;exitX=0.5;exitY=1;exitDx=0;exitDy=0;entryX=0.5;entryY=0;entryDx=0;entryDy=0;" edge="1" parent="WIyWlLk6GJQsqaUBKTNV-1" source="S09NeGv9XtgrJAgJKScN-178" target="S09NeGv9XtgrJAgJKScN-180">
          <mxGeometry relative="1" as="geometry" />
        </mxCell>
        <mxCell id="S09NeGv9XtgrJAgJKScN-186" style="edgeStyle=orthogonalEdgeStyle;rounded=0;orthogonalLoop=1;jettySize=auto;html=1;exitX=0;exitY=0.5;exitDx=0;exitDy=0;entryX=0.5;entryY=0;entryDx=0;entryDy=0;" edge="1" parent="WIyWlLk6GJQsqaUBKTNV-1" source="S09NeGv9XtgrJAgJKScN-178" target="S09NeGv9XtgrJAgJKScN-185">
          <mxGeometry relative="1" as="geometry" />
        </mxCell>
        <mxCell id="S09NeGv9XtgrJAgJKScN-178" value="дозвонились, заказ подтвержден" style="rhombus;whiteSpace=wrap;html=1;" vertex="1" parent="WIyWlLk6GJQsqaUBKTNV-1">
          <mxGeometry x="430" y="2310" width="80" height="70" as="geometry" />
        </mxCell>
        <mxCell id="S09NeGv9XtgrJAgJKScN-180" value="логистика/упаковка" style="rounded=0;whiteSpace=wrap;html=1;" vertex="1" parent="WIyWlLk6GJQsqaUBKTNV-1">
          <mxGeometry x="425" y="2450" width="90" height="40" as="geometry" />
        </mxCell>
        <mxCell id="S09NeGv9XtgrJAgJKScN-182" value="да" style="text;html=1;strokeColor=none;fillColor=none;align=center;verticalAlign=middle;whiteSpace=wrap;rounded=0;" vertex="1" parent="WIyWlLk6GJQsqaUBKTNV-1">
          <mxGeometry x="425" y="2360" width="60" height="30" as="geometry" />
        </mxCell>
        <mxCell id="S09NeGv9XtgrJAgJKScN-184" value="" style="shape=flexArrow;endArrow=classic;html=1;rounded=0;exitX=0.5;exitY=1;exitDx=0;exitDy=0;" edge="1" parent="WIyWlLk6GJQsqaUBKTNV-1" source="S09NeGv9XtgrJAgJKScN-180">
          <mxGeometry width="50" height="50" relative="1" as="geometry">
            <mxPoint x="430" y="2420" as="sourcePoint" />
            <mxPoint x="470" y="2540" as="targetPoint" />
          </mxGeometry>
        </mxCell>
        <mxCell id="S09NeGv9XtgrJAgJKScN-188" style="edgeStyle=orthogonalEdgeStyle;rounded=0;orthogonalLoop=1;jettySize=auto;html=1;exitX=0.5;exitY=1;exitDx=0;exitDy=0;entryX=0;entryY=0.5;entryDx=0;entryDy=0;" edge="1" parent="WIyWlLk6GJQsqaUBKTNV-1" source="S09NeGv9XtgrJAgJKScN-185" target="S09NeGv9XtgrJAgJKScN-180">
          <mxGeometry relative="1" as="geometry" />
        </mxCell>
        <mxCell id="S09NeGv9XtgrJAgJKScN-191" style="edgeStyle=orthogonalEdgeStyle;rounded=0;orthogonalLoop=1;jettySize=auto;html=1;" edge="1" parent="WIyWlLk6GJQsqaUBKTNV-1" source="S09NeGv9XtgrJAgJKScN-185" target="S09NeGv9XtgrJAgJKScN-190">
          <mxGeometry relative="1" as="geometry" />
        </mxCell>
        <mxCell id="S09NeGv9XtgrJAgJKScN-185" value="заказ оплачен?" style="rhombus;whiteSpace=wrap;html=1;" vertex="1" parent="WIyWlLk6GJQsqaUBKTNV-1">
          <mxGeometry x="310" y="2310" width="80" height="70" as="geometry" />
        </mxCell>
        <mxCell id="S09NeGv9XtgrJAgJKScN-187" value="нет" style="text;html=1;strokeColor=none;fillColor=none;align=center;verticalAlign=middle;whiteSpace=wrap;rounded=0;" vertex="1" parent="WIyWlLk6GJQsqaUBKTNV-1">
          <mxGeometry x="395" y="2300" width="60" height="30" as="geometry" />
        </mxCell>
        <mxCell id="S09NeGv9XtgrJAgJKScN-189" value="да" style="text;html=1;strokeColor=none;fillColor=none;align=center;verticalAlign=middle;whiteSpace=wrap;rounded=0;" vertex="1" parent="WIyWlLk6GJQsqaUBKTNV-1">
          <mxGeometry x="354" y="2410" width="60" height="30" as="geometry" />
        </mxCell>
        <mxCell id="S09NeGv9XtgrJAgJKScN-193" style="edgeStyle=orthogonalEdgeStyle;rounded=0;orthogonalLoop=1;jettySize=auto;html=1;exitX=0;exitY=0.5;exitDx=0;exitDy=0;entryX=0;entryY=0.5;entryDx=0;entryDy=0;" edge="1" parent="WIyWlLk6GJQsqaUBKTNV-1" source="S09NeGv9XtgrJAgJKScN-190" target="S09NeGv9XtgrJAgJKScN-192">
          <mxGeometry relative="1" as="geometry" />
        </mxCell>
        <mxCell id="S09NeGv9XtgrJAgJKScN-194" style="edgeStyle=orthogonalEdgeStyle;rounded=0;orthogonalLoop=1;jettySize=auto;html=1;exitX=0.5;exitY=0;exitDx=0;exitDy=0;entryX=0;entryY=0.5;entryDx=0;entryDy=0;" edge="1" parent="WIyWlLk6GJQsqaUBKTNV-1" source="S09NeGv9XtgrJAgJKScN-190" target="S09NeGv9XtgrJAgJKScN-173">
          <mxGeometry relative="1" as="geometry" />
        </mxCell>
        <mxCell id="S09NeGv9XtgrJAgJKScN-190" value="количество повторов&lt;br&gt;3" style="rhombus;whiteSpace=wrap;html=1;" vertex="1" parent="WIyWlLk6GJQsqaUBKTNV-1">
          <mxGeometry x="180" y="2310" width="80" height="70" as="geometry" />
        </mxCell>
        <mxCell id="S09NeGv9XtgrJAgJKScN-192" value="отмена заказа" style="rounded=0;whiteSpace=wrap;html=1;" vertex="1" parent="WIyWlLk6GJQsqaUBKTNV-1">
          <mxGeometry x="190" y="2420" width="80" height="40" as="geometry" />
        </mxCell>
        <mxCell id="S09NeGv9XtgrJAgJKScN-195" value="нет" style="text;html=1;strokeColor=none;fillColor=none;align=center;verticalAlign=middle;whiteSpace=wrap;rounded=0;" vertex="1" parent="WIyWlLk6GJQsqaUBKTNV-1">
          <mxGeometry x="180" y="2250" width="60" height="30" as="geometry" />
        </mxCell>
        <mxCell id="S09NeGv9XtgrJAgJKScN-196" value="да" style="text;html=1;strokeColor=none;fillColor=none;align=center;verticalAlign=middle;whiteSpace=wrap;rounded=0;" vertex="1" parent="WIyWlLk6GJQsqaUBKTNV-1">
          <mxGeometry x="140" y="2370" width="60" height="30" as="geometry" />
        </mxCell>
      </root>
    </mxGraphModel>
  </diagram>
</mxfile>
